<?xml version="1.0" encoding="UTF-8"?>
<svg xmlns="http://www.w3.org/2000/svg" style="stroke-dasharray:none; shape-rendering:auto; font-family:'Arial'; text-rendering:auto; fill-opacity:1; color-interpolation:auto; color-rendering:auto; font-size:12; fill:black; stroke:black; image-rendering:auto; stroke-miterlimit:10; stroke-linecap:square; stroke-linejoin:miter; font-style:normal; stroke-width:1; stroke-dashoffset:0; font-weight:normal; stroke-opacity:1;" contentScriptType="text/ecmascript" preserveAspectRatio="xMidYMid meet" zoomAndPan="magnify" version="1.0" contentStyleType="text/css" xml:xlink="http://www.w3.org/1999/xlink" width="1101" height="561"><rect x="40" y="10" width="1061" height="551" ry="0" rx="0" style="stroke:#000000; fill:#FFFFFF" /><rect x="70" y="376" width="1031" height="185" ry="0" rx="0" style="stroke:#000000; fill:#D0DAAE" /><g componentSequence="4"><text x="-468" y="77" transform="rotate(270)" text-anchor="middle" style="font-weight:bold;font-size:10px;stroke:none; fill:#434343"><tspan dy="14" x="-468">Gestor de QSMS</tspan></text></g><rect x="70" y="193" width="1031" height="183" ry="0" rx="0" style="stroke:#000000; fill:#ADC9AC" /><g componentSequence="3"><text x="-284" y="77" transform="rotate(270)" text-anchor="middle" style="font-weight:bold;font-size:10px;stroke:none; fill:#434343"><tspan dy="14" x="-284">Responsável pela Tarefa</tspan></text></g><rect x="70" y="10" width="1031" height="183" ry="0" rx="0" style="stroke:#000000; fill:#82B0B7" /><g componentSequence="2"><text x="-101" y="77" transform="rotate(270)" text-anchor="middle" style="font-weight:bold;font-size:10px;stroke:none; fill:#434343"><tspan dy="14" x="-101">Qualquer Colaborador</tspan></text></g><g componentSequence="1"><text x="-285" y="47" transform="rotate(270)" text-anchor="middle" style="font-weight:bold;font-size:10px;stroke:none; fill:#434343"><tspan dy="14" x="-285">Processo de Não Conformidades</tspan></text></g><g sequence="5"><ellipse cx="167" cy="87" rx="17" ry="17" stroke-width="1" style="fill:url(#linearGradient66FF6696FF96B6FFB6_213556143);" stroke="336633" /></g><g sequence="6"><rect x="110" y="200" width="106" height="84" ry="5" rx="5" style="fill:url(#linearGradientF8FBFEEDF5FCDEEDFAD4E7F8E2E5E9_41772104);" stroke="191970" /></g><g componentSequence="6"><text x="163" y="215" text-anchor="middle" style="font-weight:bold;font-size:10px;stroke:none; fill:#333399"><tspan dy="14" x="163">Informação da</tspan><tspan dy="14" x="163">Não</tspan><tspan dy="14" x="163">Conformidade</tspan></text></g><g sequence="8"><polygon points=" 200 330 230 300 260 330 230 360 200 330" style="fill:url(#linearGradientFAFBFCFFFFCC_105050335);" stroke="000000" /></g><g componentSequence="8"><text x="230" y="370" text-anchor="middle" style="font-weight:bold;font-size:10px;stroke:none; fill:#333399"><tspan dy="14" x="230">Ação</tspan><tspan dy="14" x="230">Imediata</tspan></text></g><g sequence="10"><rect x="120" y="430" width="106" height="84" ry="5" rx="5" style="fill:url(#linearGradientF8FBFEEDF5FCDEEDFAD4E7F8E2E5E9_1128296051);" stroke="191970" /></g><g componentSequence="10"><text x="173" y="445" text-anchor="middle" style="font-weight:bold;font-size:10px;stroke:none; fill:#333399"><tspan dy="14" x="173">Análise de</tspan><tspan dy="14" x="173">Controle e</tspan><tspan dy="14" x="173">Correção</tspan></text></g><g sequence="12"><rect x="320" y="300" width="106" height="56" ry="5" rx="5" style="fill:url(#linearGradientF8FBFEEDF5FCDEEDFAD4E7F8E2E5E9_469758551);" stroke="191970" /></g><g componentSequence="12"><text x="373" y="317" text-anchor="middle" style="font-weight:bold;font-size:10px;stroke:none; fill:#333399"><tspan dy="14" x="373">Análise Crítica</tspan></text></g><g sequence="15"><rect x="460" y="410" width="106" height="70" ry="5" rx="5" style="fill:url(#linearGradientF8FBFEEDF5FCDEEDFAD4E7F8E2E5E9_1925810756);" stroke="191970" /></g><g componentSequence="15"><text x="513" y="425" text-anchor="middle" style="font-weight:bold;font-size:10px;stroke:none; fill:#333399"><tspan dy="14" x="513">Investigação de</tspan><tspan dy="14" x="513">Causas</tspan></text></g><g sequence="17"><rect x="590" y="300" width="106" height="70" ry="5" rx="5" style="fill:url(#linearGradientF8FBFEEDF5FCDEEDFAD4E7F8E2E5E9_1671186634);" stroke="191970" /></g><g componentSequence="17"><text x="643" y="315" text-anchor="middle" style="font-weight:bold;font-size:10px;stroke:none; fill:#333399"><tspan dy="14" x="643">Determinar</tspan><tspan dy="14" x="643">Causa Raiz</tspan></text></g><g sequence="19"><rect x="698" y="421" width="106" height="70" ry="5" rx="5" style="fill:url(#linearGradientF8FBFEEDF5FCDEEDFAD4E7F8E2E5E9_594514236);" stroke="191970" /></g><g componentSequence="19"><text x="751" y="436" text-anchor="middle" style="font-weight:bold;font-size:10px;stroke:none; fill:#333399"><tspan dy="14" x="751">Ações</tspan><tspan dy="14" x="751">Corretivas</tspan></text></g><g sequence="21"><rect x="780" y="300" width="106" height="70" ry="5" rx="5" style="fill:url(#linearGradientF8FBFEEDF5FCDEEDFAD4E7F8E2E5E9_1206301260);" stroke="191970" /></g><g componentSequence="21"><text x="833" y="315" text-anchor="middle" style="font-weight:bold;font-size:10px;stroke:none; fill:#333399"><tspan dy="14" x="833">Avaliar Eficácia</tspan><tspan dy="14" x="833">das Ações</tspan></text></g><g sequence="23"><polygon points=" 700 230 730 200 760 230 730 260 700 230" style="fill:url(#linearGradientFAFBFCFFFFCC_2034473822);" stroke="000000" /></g><g componentSequence="23"><text x="730" y="270" text-anchor="middle" style="font-weight:bold;font-size:10px;stroke:none; fill:#333399"><tspan dy="14" x="730">Ação</tspan><tspan dy="14" x="730">Eficaz</tspan></text></g><g sequence="26"><rect x="830" y="200" width="106" height="70" ry="5" rx="5" style="fill:url(#linearGradientF8FBFEEDF5FCDEEDFAD4E7F8E2E5E9_2023245476);" stroke="191970" /></g><g componentSequence="26"><text x="883" y="215" text-anchor="middle" style="font-weight:bold;font-size:10px;stroke:none; fill:#333399"><tspan dy="14" x="883">Análise Crítiva</tspan><tspan dy="14" x="883">Final</tspan></text></g><g sequence="28"><polygon points=" 970 300 1000 270 1030 300 1000 330 970 300" style="fill:url(#linearGradientFAFBFCFFFFCC_656527098);" stroke="000000" /></g><g componentSequence="28"><text x="1000" y="340" text-anchor="middle" style="font-weight:bold;font-size:10px;stroke:none; fill:#333399"><tspan dy="14" x="1000">Problema</tspan><tspan dy="14" x="1000">se</tspan><tspan dy="14" x="1000">Repetiu</tspan></text></g><g sequence="31"><ellipse cx="1067" cy="227" rx="17" ry="17" stroke-width="3" style="fill:url(#linearGradientFF6666FF9696FFB6B6_1437039744);" stroke="993333" /></g><g componentSequence="7"><text x="176" y="152" style="font-size:10px;font-weight:none;stroke:none; fill:#333399" text-anchor="left" /></g><g componentSequence="9"><text x="204" y="292" style="font-size:10px;font-weight:none;stroke:none; fill:#333399" text-anchor="left" /></g><g componentSequence="11"><text x="170" y="350" style="font-size:10px;font-weight:none;stroke:none; fill:#333399" text-anchor="left"><tspan dy="14" x="170">SIM</tspan></text></g><g componentSequence="13"><text x="260" y="320" style="font-size:10px;font-weight:none;stroke:none; fill:#333399" text-anchor="left"><tspan dy="14" x="260">NÃO</tspan></text></g><g componentSequence="14"><text x="326" y="445" style="font-size:10px;font-weight:none;stroke:none; fill:#333399" text-anchor="left" /></g><g componentSequence="16"><text x="449" y="383" style="font-size:10px;font-weight:none;stroke:none; fill:#333399" text-anchor="left" /></g><g componentSequence="18"><text x="630" y="427" style="font-size:10px;font-weight:none;stroke:none; fill:#333399" text-anchor="left" /></g><g componentSequence="20"><text x="707" y="395" style="font-size:10px;font-weight:none;stroke:none; fill:#333399" text-anchor="left" /></g><g componentSequence="22"><text x="802" y="395" style="font-size:10px;font-weight:none;stroke:none; fill:#333399" text-anchor="left" /></g><g componentSequence="24"><text x="785" y="287" style="font-size:10px;font-weight:none;stroke:none; fill:#333399" text-anchor="left" /></g><g componentSequence="25"><text x="660" y="230" style="font-size:10px;font-weight:none;stroke:none; fill:#333399" text-anchor="left"><tspan dy="14" x="660">NÃO</tspan></text></g><g componentSequence="27"><text x="770" y="230" style="font-size:10px;font-weight:none;stroke:none; fill:#333399" text-anchor="left"><tspan dy="14" x="770">SIM</tspan></text></g><g componentSequence="29"><text x="958" y="287" style="font-size:10px;font-weight:none;stroke:none; fill:#333399" text-anchor="left" /></g><g componentSequence="30"><text x="950" y="310" style="font-size:10px;font-weight:none;stroke:none; fill:#333399" text-anchor="left"><tspan dy="14" x="950">SIM</tspan></text></g><g componentSequence="32"><text x="1030" y="310" style="font-size:10px;font-weight:none;stroke:none; fill:#333399" text-anchor="left"><tspan dy="14" x="1030">NÃO</tspan></text></g><path style="fill:none; stroke:#000000;stroke-width:1" d="M167.0 104.0 L164.0 199.0" /><polygon style="fill:#000000; stroke:#000000;" points=" 169 189 164 199 159 189 164 191" /><path style="fill:none; stroke:#000000;stroke-width:1" d="M189.0 284.0 L199.0 301.0" /><polygon style="fill:#000000; stroke:#000000;" points=" 198 290 199 301 190 295 195 294" /><path style="fill:none; stroke:#000000;stroke-width:1" d="M199.0 361.0 L177.0 368.0 L174.0 429.0" /><polygon style="fill:#000000; stroke:#000000;" points=" 179 419 174 429 169 419 174 421" /><path style="fill:none; stroke:#000000;stroke-width:1" d="M260.0 341.0 L282.0 335.0 L319.0 332.0" /><polygon style="fill:#000000; stroke:#000000;" points=" 309 328 319 332 309 338 311 333" /><path style="fill:none; stroke:#000000;stroke-width:1" d="M226.0 466.0 L310.0 457.0 L359.0 356.0" /><polygon style="fill:#000000; stroke:#000000;" points=" 350 363 359 356 359 367 356 363" /><path style="fill:none; stroke:#000000;stroke-width:1" d="M407.0 356.0 L470.0 409.0" /><polygon style="fill:#000000; stroke:#000000;" points=" 466 399 470 409 459 406 464 404" /><path style="fill:none; stroke:#000000;stroke-width:1" d="M566.0 439.0 L618.0 433.0 L634.0 370.0" /><polygon style="fill:#000000; stroke:#000000;" points=" 627 378 634 370 636 381 632 378" /><path style="fill:none; stroke:#000000;stroke-width:1" d="M699.0 251.0 L512.0 251.0 L512.0 409.0" /><polygon style="fill:#000000; stroke:#000000;" points=" 517 399 512 409 507 399 512 401" /><path style="fill:none; stroke:#000000;stroke-width:1" d="M969.0 330.0 L927.0 333.0 L847.0 536.0 L516.0 536.0 L514.0 480.0" /><polygon style="fill:#000000; stroke:#000000;" points=" 509 490 514 480 519 490 514 488" /><path style="fill:none; stroke:#000000;stroke-width:1" d="M674.0 370.0 L719.0 420.0" /><polygon style="fill:#000000; stroke:#000000;" points=" 716 409 719 420 709 416 714 414" /><path style="fill:none; stroke:#000000;stroke-width:1" d="M775.0 420.0 L809.0 370.0" /><polygon style="fill:#000000; stroke:#000000;" points=" 799 375 809 370 808 381 805 377" /><path style="fill:none; stroke:#000000;stroke-width:1" d="M789.0 299.0 L760.0 275.0" /><polygon style="fill:#000000; stroke:#000000;" points=" 765 285 760 275 771 278 766 280" /><path style="fill:none; stroke:#000000;stroke-width:1" d="M760.0 247.0 L829.0 240.0" /><polygon style="fill:#000000; stroke:#000000;" points=" 819 236 829 240 820 246 821 241" /><path style="fill:none; stroke:#000000;stroke-width:1" d="M927.0 270.0 L969.0 303.0" /><polygon style="fill:#000000; stroke:#000000;" points=" 964 293 969 303 958 301 963 298" /><path style="fill:none; stroke:#000000;stroke-width:1" d="M1030.0 328.0 L1067.0 329.0 L1067.0 245.0" /><polygon style="fill:#000000; stroke:#000000;" points=" 1062 255 1067 245 1072 255 1067 253" /><defs><linearGradient xmlns:xlink="http://www.w3.org/1999/xlink" xlink:href="#linearGradient66FF6696FF96B6FFB6" id="linearGradient66FF6696FF96B6FFB6_213556143" x1="0" y1="70.0" x2="0" y2="105.0" gradientUnits="userSpaceOnUse" xlink:type="simple" xlink:actuate="onLoad" xlink:show="other" /><linearGradient id="linearGradient66FF6696FF96B6FFB6"><stop style="stop-color:#66FF66;stop-opacity:1;" offset="0.0" id="stop66FF66" /><stop style="stop-color:#96FF96;stop-opacity:1;" offset="0.5" id="stop96FF96" /><stop style="stop-color:#B6FFB6;stop-opacity:1;" offset="1.0" id="stopB6FFB6" /></linearGradient><linearGradient xmlns:xlink="http://www.w3.org/1999/xlink" xlink:href="#linearGradientF8FBFEEDF5FCDEEDFAD4E7F8E2E5E9" id="linearGradientF8FBFEEDF5FCDEEDFAD4E7F8E2E5E9_41772104" x1="0" y1="200.0" x2="0" y2="306.0" gradientUnits="userSpaceOnUse" xlink:type="simple" xlink:actuate="onLoad" xlink:show="other" /><linearGradient id="linearGradientF8FBFEEDF5FCDEEDFAD4E7F8E2E5E9"><stop style="stop-color:#F8FBFE;stop-opacity:1;" offset="0.0" id="stopF8FBFE" /><stop style="stop-color:#EDF5FC;stop-opacity:1;" offset="0.25" id="stopEDF5FC" /><stop style="stop-color:#DEEDFA;stop-opacity:1;" offset="0.5" id="stopDEEDFA" /><stop style="stop-color:#D4E7F8;stop-opacity:1;" offset="0.75" id="stopD4E7F8" /><stop style="stop-color:#E2E5E9;stop-opacity:1;" offset="1.0" id="stopE2E5E9" /></linearGradient><linearGradient xmlns:xlink="http://www.w3.org/1999/xlink" xlink:href="#linearGradientFAFBFCFFFFCC" id="linearGradientFAFBFCFFFFCC_105050335" x1="0" y1="300.0" x2="0" y2="360.0" gradientUnits="userSpaceOnUse" xlink:type="simple" xlink:actuate="onLoad" xlink:show="other" /><linearGradient id="linearGradientFAFBFCFFFFCC"><stop style="stop-color:#FAFBFC;stop-opacity:1;" offset="0.0" id="stopFAFBFC" /><stop style="stop-color:#FFFFCC;stop-opacity:1;" offset="1.0" id="stopFFFFCC" /></linearGradient><linearGradient xmlns:xlink="http://www.w3.org/1999/xlink" xlink:href="#linearGradientF8FBFEEDF5FCDEEDFAD4E7F8E2E5E9" id="linearGradientF8FBFEEDF5FCDEEDFAD4E7F8E2E5E9_1128296051" x1="0" y1="430.0" x2="0" y2="536.0" gradientUnits="userSpaceOnUse" xlink:type="simple" xlink:actuate="onLoad" xlink:show="other" /><linearGradient xmlns:xlink="http://www.w3.org/1999/xlink" xlink:href="#linearGradientF8FBFEEDF5FCDEEDFAD4E7F8E2E5E9" id="linearGradientF8FBFEEDF5FCDEEDFAD4E7F8E2E5E9_469758551" x1="0" y1="300.0" x2="0" y2="406.0" gradientUnits="userSpaceOnUse" xlink:type="simple" xlink:actuate="onLoad" xlink:show="other" /><linearGradient xmlns:xlink="http://www.w3.org/1999/xlink" xlink:href="#linearGradientF8FBFEEDF5FCDEEDFAD4E7F8E2E5E9" id="linearGradientF8FBFEEDF5FCDEEDFAD4E7F8E2E5E9_1925810756" x1="0" y1="410.0" x2="0" y2="516.0" gradientUnits="userSpaceOnUse" xlink:type="simple" xlink:actuate="onLoad" xlink:show="other" /><linearGradient xmlns:xlink="http://www.w3.org/1999/xlink" xlink:href="#linearGradientF8FBFEEDF5FCDEEDFAD4E7F8E2E5E9" id="linearGradientF8FBFEEDF5FCDEEDFAD4E7F8E2E5E9_1671186634" x1="0" y1="300.0" x2="0" y2="406.0" gradientUnits="userSpaceOnUse" xlink:type="simple" xlink:actuate="onLoad" xlink:show="other" /><linearGradient xmlns:xlink="http://www.w3.org/1999/xlink" xlink:href="#linearGradientF8FBFEEDF5FCDEEDFAD4E7F8E2E5E9" id="linearGradientF8FBFEEDF5FCDEEDFAD4E7F8E2E5E9_594514236" x1="0" y1="421.0" x2="0" y2="527.0" gradientUnits="userSpaceOnUse" xlink:type="simple" xlink:actuate="onLoad" xlink:show="other" /><linearGradient xmlns:xlink="http://www.w3.org/1999/xlink" xlink:href="#linearGradientF8FBFEEDF5FCDEEDFAD4E7F8E2E5E9" id="linearGradientF8FBFEEDF5FCDEEDFAD4E7F8E2E5E9_1206301260" x1="0" y1="300.0" x2="0" y2="406.0" gradientUnits="userSpaceOnUse" xlink:type="simple" xlink:actuate="onLoad" xlink:show="other" /><linearGradient xmlns:xlink="http://www.w3.org/1999/xlink" xlink:href="#linearGradientFAFBFCFFFFCC" id="linearGradientFAFBFCFFFFCC_2034473822" x1="0" y1="200.0" x2="0" y2="260.0" gradientUnits="userSpaceOnUse" xlink:type="simple" xlink:actuate="onLoad" xlink:show="other" /><linearGradient xmlns:xlink="http://www.w3.org/1999/xlink" xlink:href="#linearGradientF8FBFEEDF5FCDEEDFAD4E7F8E2E5E9" id="linearGradientF8FBFEEDF5FCDEEDFAD4E7F8E2E5E9_2023245476" x1="0" y1="200.0" x2="0" y2="306.0" gradientUnits="userSpaceOnUse" xlink:type="simple" xlink:actuate="onLoad" xlink:show="other" /><linearGradient xmlns:xlink="http://www.w3.org/1999/xlink" xlink:href="#linearGradientFAFBFCFFFFCC" id="linearGradientFAFBFCFFFFCC_656527098" x1="0" y1="270.0" x2="0" y2="330.0" gradientUnits="userSpaceOnUse" xlink:type="simple" xlink:actuate="onLoad" xlink:show="other" /><linearGradient xmlns:xlink="http://www.w3.org/1999/xlink" xlink:href="#linearGradientFF6666FF9696FFB6B6" id="linearGradientFF6666FF9696FFB6B6_1437039744" x1="0" y1="210.0" x2="0" y2="245.0" gradientUnits="userSpaceOnUse" xlink:type="simple" xlink:actuate="onLoad" xlink:show="other" /><linearGradient id="linearGradientFF6666FF9696FFB6B6"><stop style="stop-color:#FF6666;stop-opacity:1;" offset="0.0" id="stopFF6666" /><stop style="stop-color:#FF9696;stop-opacity:1;" offset="0.5" id="stopFF9696" /><stop style="stop-color:#FFB6B6;stop-opacity:1;" offset="1.0" id="stopFFB6B6" /></linearGradient></defs></svg>
